<?xml version="1.0" encoding="UTF-8" standalone="no"?>
<svg width="100" height="100" viewBox="0 0 100 100" xmlns="http://www.w3.org/2000/svg">
  <!-- Brain outline -->
  <path d="M50,20 C35,20 25,35 25,50 C25,65 35,80 50,80 C65,80 75,65 75,50 C75,35 65,20 50,20 Z" 
        fill="none" stroke="#2563EB" stroke-width="2"/>
  
  <!-- Circuit pattern / neural network nodes -->
  <circle cx="50" cy="35" r="5" fill="#2563EB"/>
  <circle cx="35" cy="45" r="5" fill="#2563EB"/>
  <circle cx="65" cy="45" r="5" fill="#2563EB"/>
  <circle cx="40" cy="60" r="5" fill="#2563EB"/>
  <circle cx="60" cy="60" r="5" fill="#2563EB"/>
  <circle cx="50" cy="70" r="5" fill="#2563EB"/>
  
  <!-- Neural connections -->
  <line x1="50" y1="35" x2="35" y2="45" stroke="#2563EB" stroke-width="1.5"/>
  <line x1="50" y1="35" x2="65" y2="45" stroke="#2563EB" stroke-width="1.5"/>
  <line x1="35" y1="45" x2="40" y2="60" stroke="#2563EB" stroke-width="1.5"/>
  <line x1="65" y1="45" x2="60" y2="60" stroke="#2563EB" stroke-width="1.5"/>
  <line x1="40" y1="60" x2="50" y2="70" stroke="#2563EB" stroke-width="1.5"/>
  <line x1="60" y1="60" x2="50" y2="70" stroke="#2563EB" stroke-width="1.5"/>
  <line x1="35" y1="45" x2="65" y2="45" stroke="#2563EB" stroke-width="1.5" stroke-dasharray="2,2"/>
  <line x1="40" y1="60" x2="60" y2="60" stroke="#2563EB" stroke-width="1.5" stroke-dasharray="2,2"/>
  
  <!-- Additional circuit elements -->
  <rect x="47" y="28" width="6" height="2" fill="#2563EB"/>
  <rect x="28" y="47" width="2" height="6" fill="#2563EB"/>
  <rect x="70" y="47" width="2" height="6" fill="#2563EB"/>
  <rect x="47" y="75" width="6" height="2" fill="#2563EB"/>
</svg>

<svg xmlns="http://www.w3.org/2000/svg" width="24" height="24" viewBox="0 0 24 24" fill="none" stroke="currentColor" stroke-width="2" stroke-linecap="round" stroke-linejoin="round">
  <!-- Brain outline -->
  <path d="M12 2C6.5 2 4 5.5 4 10c0 2.5 1 4 2 5.5C7 17 7 18 7 19h10c0-1 0-2 1-3.5C19 14 20 12.5 20 10c0-4.5-2.5-8-8-8z" />
  
  <!-- Circuit lines -->
  <line x1="8" y1="10" x2="16" y2="10" />
  <line x1="8" y1="14" x2="16" y2="14" />
  <line x1="12" y1="6" x2="12" y2="18" />
  
  <!-- Connection points -->
  <circle cx="8" cy="10" r="1" fill="currentColor" />
  <circle cx="16" cy="10" r="1" fill="currentColor" />
  <circle cx="8" cy="14" r="1" fill="currentColor" />
  <circle cx="16" cy="14" r="1" fill="currentColor" />
  <circle cx="12" cy="6" r="1" fill="currentColor" />
  <circle cx="12" cy="18" r="1" fill="currentColor" />
</svg>

