<svg xmlns="http://www.w3.org/2000/svg" width="48" height="48" viewBox="0 0 48 48" fill="none" stroke="currentColor" stroke-width="2" stroke-linecap="round" stroke-linejoin="round">
  <!-- Document/Policy Base -->
  <rect x="12" y="8" width="24" height="32" rx="2" ry="2" fill="none" />
  
  <!-- Document Lines -->
  <line x1="18" y1="16" x2="30" y2="16" />
  <line x1="18" y1="22" x2="30" y2="22" />
  <line x1="18" y1="28" x2="24" y2="28" />
  
  <!-- AI Brain Circuit Symbol -->
  <circle cx="24" cy="20" r="10" fill="none" opacity="0.3" />
  <path d="M20,20 C20,17.5 21.5,16 24,16 C26.5,16 28,17.5 28,20 C28,22.5 26.5,24 24,24" fill="none" />
  <path d="M24,24 L24,28" fill="none" />
  
  <!-- Balance Scale (Governance) -->
  <line x1="24" y1="28" x2="24" y2="34" />
  <line x1="18" y1="34" x2="30" y2="34" />
  <circle cx="20" cy="36" r="1.5" />
  <circle cx="28" cy="36" r="1.5" />
  
  <!-- Shield (Security/Protection) -->
  <path d="M24,14 L24,10 Q28,12 32,10 L32,14 Q28,16 24,14 Z" fill="none" opacity="0.6" />
  
  <style>
    svg {
      color: #333;
    }
    @media (prefers-color-scheme: dark) {
      svg {
        color: #e5e5e5;
      }
    }
  </style>
</svg>

