<?xml version="1.0" encoding="UTF-8"?>
<svg width="64" height="64" viewBox="0 0 64 64" xmlns="http://www.w3.org/2000/svg">
  <!-- Brain outline -->
  <path d="M32 8 C22 8, 14 16, 14 26 C14 32, 18 36, 20 38 C20 38, 20 42, 20 46 C20 52, 24 56, 32 56 C40 56, 44 52, 44 46 C44 42, 44 38, 44 38 C46 36, 50 32, 50 26 C50 16, 42 8, 32 8 Z" 
        fill="none" stroke="#3498db" stroke-width="2"/>
  
  <!-- Neural network nodes -->
  <circle cx="24" cy="20" r="3" fill="#e74c3c"/>
  <circle cx="40" cy="20" r="3" fill="#e74c3c"/>
  <circle cx="20" cy="32" r="3" fill="#e74c3c"/>
  <circle cx="32" cy="32" r="3" fill="#e74c3c"/>
  <circle cx="44" cy="32" r="3" fill="#e74c3c"/>
  <circle cx="24" cy="44" r="3" fill="#e74c3c"/>
  <circle cx="40" cy="44" r="3" fill="#e74c3c"/>
  
  <!-- Circuit connections -->
  <line x1="24" y1="20" x2="40" y2="20" stroke="#2ecc71" stroke-width="1.5"/>
  <line x1="24" y1="20" x2="20" y2="32" stroke="#2ecc71" stroke-width="1.5"/>
  <line x1="24" y1="20" x2="32" y2="32" stroke="#2ecc71" stroke-width="1.5"/>
  <line x1="40" y1="20" x2="32" y2="32" stroke="#2ecc71" stroke-width="1.5"/>
  <line x1="40" y1="20" x2="44" y2="32" stroke="#2ecc71" stroke-width="1.5"/>
  <line x1="20" y1="32" x2="24" y2="44" stroke="#2ecc71" stroke-width="1.5"/>
  <line x1="32" y1="32" x2="24" y2="44" stroke="#2ecc71" stroke-width="1.5"/>
  <line x1="32" y1="32" x2="40" y2="44" stroke="#2ecc71" stroke-width="1.5"/>
  <line x1="44" y1="32" x2="40" y2="44" stroke="#2ecc71" stroke-width="1.5"/>
  
  <!-- Digital circuit elements -->
  <path d="M24 23 L24 26 M40 23 L40 26 M20 35 L20 38 M32 35 L32 38 M44 35 L44 38" 
        stroke="#9b59b6" stroke-width="1.5"/>
  
  <!-- Pulse animations -->
  <circle cx="28" cy="26" r="1" fill="#f39c12">
    <animate attributeName="opacity" values="0;1;0" dur="2s" repeatCount="indefinite" />
  </circle>
  <circle cx="36" cy="38" r="1" fill="#f39c12">
    <animate attributeName="opacity" values="0;1;0" dur="2s" repeatCount="indefinite" begin="0.5s" />
  </circle>
</svg>

