<svg xmlns="http://www.w3.org/2000/svg" viewBox="0 0 24 24" width="24" height="24" fill="currentColor">
  <path d="M19.586 0H4.414C1.975 0 0 1.975 0 4.414v15.172C0 22.025 1.975 24 4.414 24h15.172C22.025 24 24 22.025 24 19.586V4.414C24 1.975 22.025 0 19.586 0zM18 14.77l-.258 1.036a3.791 3.791 0 0 1-3.516 2.682c-2.926 0-4.826-2.227-4.826-5.316 0-3.18 2.16-5.316 5.148-5.316 1.775 0 3.268.908 3.773 2.552l-1.868.432c-.306-.954-1.119-1.465-2.025-1.465-1.55 0-2.646 1.244-2.646 3.797 0 2.475 1.022 3.797 2.682 3.797.859 0 1.601-.357 1.927-1.201H14.75v-1.636H18v.638zm-8.455 3.089H7.414V5.466h1.292v4.326a2.76 2.76 0 0 1 1.982-.818c2.052 0 3.43 1.623 3.43 4.097 0 2.625-1.336 4.36-3.378 4.36a2.72 2.72 0 0 1-2.195-.984v.412zm.142-4.628c0 1.556.738 2.594 1.867 2.594 1.217 0 1.894-1.037 1.894-2.54 0-1.53-.704-2.567-1.894-2.567-1.129 0-1.867 1.037-1.867 2.513z"/>
</svg>

